<svg xmlns="http://www.w3.org/2000/svg" viewBox="0 0 400 320" width="400" height="320"><path stroke="#cbd4c8" stroke-width="0.6" d="M70 91L322 91M70 163L322 163M70 235L322 235" fill="none" /><path opacity="0.98" stroke="#217f50" stroke-width="0.9" d="M72.1 91L72.1 77.28M160.3 91L160.3 81.9M177.1 91L177.1 76.98M231.7 91L231.7 80.21M256.9 91L256.9 77.15M294.7 91L294.7 79.07M114.1 163L114.1 153.46M135.1 163L135.1 150.13M198.1 163L198.1 153.84M269.5 163L269.5 153.5M273.7 163L273.7 153.9M147.7 235L147.7 221.85M290.5 235L290.5 225.89" fill="none" /><path opacity="0.97" stroke="#217f50" stroke-width="0.9" d="M76.3 91L76.3 79.67M80.5 91L80.5 80.65M101.5 91L101.5 81.05M130.9 91L130.9 77.99M214.9 91L214.9 77.01M235.9 91L235.9 77.81M277.9 91L277.9 78.04M303.1 91L303.1 76.23M101.5 163L101.5 149.89M156.1 163L156.1 153.35M210.7 163L210.7 153.32M290.5 163L290.5 149.51M105.7 235L105.7 223.79M143.5 235L143.5 223.18M185.5 235L185.5 225.14M261.1 235L261.1 222.65M265.3 235L265.3 222.78" fill="none" /><path opacity="0.92" stroke="#217f50" stroke-width="0.9" d="M84.7 91L84.7 77.04M151.9 91L151.9 76.32M156.1 91L156.1 76.29M261.1 91L261.1 77.1M286.3 91L286.3 76.44M76.3 163L76.3 150.41M97.3 163L97.3 152.76M151.9 163L151.9 153.23M265.3 163L265.3 148.9M84.7 235L84.7 221.34M189.7 235L189.7 221.7M244.3 235L244.3 223.64M248.5 235L248.5 225.39" fill="none" /><path opacity="0.94" stroke="#217f50" stroke-width="0.9" d="M88.9 91L88.9 77.78M122.5 91L122.5 77.78M147.7 91L147.7 76.81M193.9 91L193.9 77.25M252.7 91L252.7 81.72M265.3 91L265.3 78.48M80.5 163L80.5 152.6M88.9 163L88.9 151.86M93.1 163L93.1 153.17M118.3 163L118.3 152.07M126.7 163L126.7 153.02M80.5 235L80.5 221.66M93.1 235L93.1 223.3M168.7 235L168.7 224.39M172.9 235L172.9 224.36M235.9 235L235.9 223.58M294.7 235L294.7 225.05" fill="none" /><path opacity="0.93" stroke="#217f50" stroke-width="0.9" d="M93.1 91L93.1 80.75M114.1 91L114.1 80.55M164.5 91L164.5 76.79M202.3 91L202.3 77.67M210.7 91L210.7 77.66M223.3 91L223.3 78.35M240.1 91L240.1 77.79M248.5 91L248.5 76.77M311.5 91L311.5 77.56M109.9 163L109.9 152.47M122.5 163L122.5 152.58M147.7 163L147.7 151.16M177.1 163L177.1 152.71M219.1 163L219.1 152.76M240.1 163L240.1 152.13M244.3 163L244.3 152.55M76.3 235L76.3 222.56M114.1 235L114.1 222.77M139.3 235L139.3 223.21M181.3 235L181.3 224.4M227.5 235L227.5 222.6M240.1 235L240.1 220.77M256.9 235L256.9 225.45M269.5 235L269.5 223.96" fill="none" /><path opacity="0.99" stroke="#217f50" stroke-width="0.9" d="M97.3 91L97.3 76.31M118.3 91L118.3 78.2M126.7 91L126.7 81.57M185.5 91L185.5 77.86M244.3 91L244.3 79.14M248.5 163L248.5 152.52M256.9 163L256.9 150.28M277.9 163L277.9 151.4M298.9 163L298.9 152.74M303.1 163L303.1 152.4M72.1 235L72.1 222.73M160.3 235L160.3 223.11M210.7 235L210.7 223.2" fill="none" /><path opacity="0.91" stroke="#217f50" stroke-width="0.9" d="M105.7 91L105.7 80.59M109.9 91L109.9 76.89M139.3 91L139.3 76.51M269.5 91L269.5 76.08M72.1 163L72.1 151.65M181.3 163L181.3 150.53M185.5 163L185.5 153.23M231.7 163L231.7 150.05M235.9 163L235.9 152.21M261.1 163L261.1 148.5M282.1 163L282.1 151.8M286.3 163L286.3 151.7M88.9 235L88.9 224.63M122.5 235L122.5 225.87M164.5 235L164.5 221.21M177.1 235L177.1 223.56M214.9 235L214.9 221.7M219.1 235L219.1 221.25M231.7 235L231.7 224.36" fill="none" /><path opacity="0.95" stroke="#217f50" stroke-width="0.9" d="M135.1 91L135.1 77.26M168.7 91L168.7 79.13M189.7 91L189.7 81.81M206.5 91L206.5 79.43M219.1 91L219.1 79.8M273.7 91L273.7 78.18M290.5 91L290.5 77.82M84.7 163L84.7 149.67M143.5 163L143.5 152.33M168.7 163L168.7 150.47M206.5 163L206.5 151.84M214.9 163L214.9 152.76M252.7 163L252.7 151.41M97.3 235L97.3 225M109.9 235L109.9 223.56M130.9 235L130.9 224.52M202.3 235L202.3 221.7M252.7 235L252.7 224.42M277.9 235L277.9 222.24" fill="none" /><path opacity="0.96" stroke="#217f50" stroke-width="0.9" d="M143.5 91L143.5 80.49M181.3 91L181.3 78.59M198.1 91L198.1 80.93M227.5 91L227.5 81.86M282.1 91L282.1 76.49M298.9 91L298.9 79.87M307.3 91L307.3 81.35M105.7 163L105.7 148.58M130.9 163L130.9 153.53M160.3 163L160.3 153.89M189.7 163L189.7 152.78M101.5 235L101.5 222.09M118.3 235L118.3 223.5M135.1 235L135.1 224.1M198.1 235L198.1 223.45M223.3 235L223.3 221.71M273.7 235L273.7 222.26M298.9 235L298.9 221.15" fill="none" /><path opacity="1" stroke="#217f50" stroke-width="0.9" d="M172.9 91L172.9 76.99M164.5 163L164.5 151.61M172.9 163L172.9 152.61M223.3 163L223.3 153.06M156.1 235L156.1 222.18M193.9 235L193.9 220.25M206.5 235L206.5 224.76M286.3 235L286.3 222.26" fill="none" /><path opacity="0.9" stroke="#217f50" stroke-width="0.9" d="M139.3 163L139.3 150.21M193.9 163L193.9 150.42M202.3 163L202.3 149.9M227.5 163L227.5 151.81M294.7 163L294.7 148.64M126.7 235L126.7 220.61M151.9 235L151.9 221.78M282.1 235L282.1 225.11" fill="none" /><text x="60" y="85" font-size="11" font-weight="700" fill="#526258" text-anchor="end" letter-spacing=".08em" font-family="Noto Sans KR">1 km</text><circle cx="88.9" cy="95" r="0.8" fill="#526258" /><circle cx="109.9" cy="95" r="0.8" fill="#526258" /><circle cx="130.9" cy="95" r="0.8" fill="#526258" /><circle cx="151.9" cy="95" r="0.8" fill="#526258" /><circle cx="172.9" cy="95" r="0.8" fill="#526258" /><circle cx="193.9" cy="95" r="0.8" fill="#526258" /><circle cx="214.9" cy="95" r="0.8" fill="#526258" /><circle cx="235.9" cy="95" r="0.8" fill="#526258" /><circle cx="256.9" cy="95" r="0.8" fill="#526258" /><circle cx="277.9" cy="95" r="0.8" fill="#526258" /><circle cx="298.9" cy="95" r="0.8" fill="#526258" /><text x="323.6" y="86" font-size="11" font-weight="800" fill="#217f50" font-family="Noto Sans KR">9′40″</text><text x="60" y="157" font-size="11" font-weight="700" fill="#526258" text-anchor="end" letter-spacing=".08em" font-family="Noto Sans KR">2 km</text><circle cx="88.9" cy="167" r="0.8" fill="#526258" /><circle cx="109.9" cy="167" r="0.8" fill="#526258" /><circle cx="130.9" cy="167" r="0.8" fill="#526258" /><circle cx="151.9" cy="167" r="0.8" fill="#526258" /><circle cx="172.9" cy="167" r="0.8" fill="#526258" /><circle cx="193.9" cy="167" r="0.8" fill="#526258" /><circle cx="214.9" cy="167" r="0.8" fill="#526258" /><circle cx="235.9" cy="167" r="0.8" fill="#526258" /><circle cx="256.9" cy="167" r="0.8" fill="#526258" /><circle cx="277.9" cy="167" r="0.8" fill="#526258" /><circle cx="298.9" cy="167" r="0.8" fill="#526258" /><text x="315.2" y="158" font-size="11" font-weight="800" fill="#217f50" font-family="Noto Sans KR">9′20″</text><text x="60" y="229" font-size="11" font-weight="700" fill="#526258" text-anchor="end" letter-spacing=".08em" font-family="Noto Sans KR">3 km</text><circle cx="88.9" cy="239" r="0.8" fill="#526258" /><circle cx="109.9" cy="239" r="0.8" fill="#526258" /><circle cx="130.9" cy="239" r="0.8" fill="#526258" /><circle cx="151.9" cy="239" r="0.8" fill="#526258" /><circle cx="172.9" cy="239" r="0.8" fill="#526258" /><circle cx="193.9" cy="239" r="0.8" fill="#526258" /><circle cx="214.9" cy="239" r="0.8" fill="#526258" /><circle cx="235.9" cy="239" r="0.8" fill="#526258" /><circle cx="256.9" cy="239" r="0.8" fill="#526258" /><circle cx="277.9" cy="239" r="0.8" fill="#526258" /><circle cx="298.9" cy="239" r="0.8" fill="#526258" /><text x="311" y="230" font-size="11" font-weight="800" fill="#217f50" font-family="Noto Sans KR">9′10″</text><text x="200" y="308" font-size="11" font-weight="600" fill="#526258" text-anchor="middle" letter-spacing=".12em" font-family="Noto Sans KR">한 눈금 = 10초/km · 짧을수록 빠른 구간</text></svg>